<?xml version="1.0" standalone="no"?>
<!DOCTYPE svg PUBLIC "-//W3C//DTD SVG 20010904//EN"
 "http://www.w3.org/TR/2001/REC-SVG-20010904/DTD/svg10.dtd">
<svg version="1.0" xmlns="http://www.w3.org/2000/svg"
 width="600.000000pt" height="600.000000pt" viewBox="0 0 600.000000 600.000000"
 preserveAspectRatio="xMidYMid meet">
<metadata>
Created by potrace 1.14, written by Peter Selinger 2001-2017
</metadata>
<g transform="translate(0.000000,600.000000) scale(0.100000,-0.100000)"
fill="#000000" stroke="none">
<path d="M2968 5748 c-9 -7 -26 -42 -38 -78 -62 -187 -197 -403 -359 -572
-126 -131 -221 -211 -366 -308 -60 -40 -140 -95 -177 -122 -75 -55 -222 -123
-403 -187 -302 -106 -486 -210 -669 -378 -131 -120 -175 -169 -228 -254 -51
-79 -200 -408 -192 -421 5 -7 3 -8 -6 -3 -8 5 -11 3 -8 -6 3 -8 -2 -20 -9 -28
-8 -7 -12 -20 -9 -27 3 -8 0 -14 -6 -14 -6 0 -9 -3 -6 -6 4 -3 0 -20 -7 -38
-11 -26 -11 -36 -2 -46 9 -10 9 -11 0 -6 -7 4 -13 4 -14 -1 -1 -9 -1 -11 -29
-123 -43 -167 -54 -623 -20 -788 29 -143 95 -397 124 -477 52 -144 204 -394
314 -516 85 -95 365 -295 507 -363 109 -52 136 -61 268 -91 65 -14 104 -19
108 -13 4 6 8 5 11 -3 4 -12 8 -12 20 -1 11 9 18 10 23 2 3 -5 11 -10 16 -10
6 0 8 4 5 8 -3 5 1 9 9 9 8 0 12 -4 9 -9 -3 -4 0 -8 5 -8 6 0 11 6 11 13 0 9
2 9 9 -1 12 -20 18 -19 36 3 9 12 13 14 10 5 -4 -11 1 -16 14 -16 16 0 18 3 8
15 -9 11 -4 11 17 -3 16 -10 25 -13 22 -7 -7 11 -2 13 34 13 35 0 41 -2 35
-12 -3 -5 3 -10 14 -10 12 0 21 6 21 13 0 8 3 7 10 -3 22 -36 331 69 502 170
107 64 254 187 357 298 52 56 98 102 102 102 19 0 7 -57 -55 -262 -67 -223
-189 -527 -249 -620 -71 -111 -132 -174 -201 -207 -89 -42 -105 -73 -61 -116
l24 -25 638 6 c351 3 647 7 659 9 11 3 26 16 33 31 15 33 -4 66 -52 90 -71 36
-181 121 -233 178 -58 64 -152 236 -197 361 -14 39 -32 86 -40 105 -49 114
-108 460 -78 460 4 0 24 -24 43 -52 66 -99 159 -178 285 -242 295 -149 585
-226 804 -213 156 9 288 25 349 43 67 19 284 113 288 125 2 5 8 7 12 4 5 -3
38 8 74 25 50 24 84 52 154 124 88 92 179 212 175 228 -2 4 2 8 7 8 6 0 16 12
23 28 7 15 24 45 38 67 67 104 221 397 215 411 -4 10 -2 13 6 8 7 -5 9 1 6 19
-3 15 -2 24 3 22 6 -5 24 71 18 77 -1 2 3 12 9 24 6 11 13 32 16 45 3 13 10
44 16 68 6 24 9 50 6 57 -3 8 -1 16 4 19 6 4 10 30 10 60 0 29 7 80 15 113 17
64 16 172 0 184 -6 5 -5 8 3 8 6 0 12 5 12 11 0 5 -5 7 -12 3 -7 -5 -8 -3 -3
6 4 7 9 25 10 41 2 21 -2 29 -14 29 -14 1 -14 2 0 10 11 7 15 23 14 62 -1 58
-10 82 -27 72 -7 -4 -8 -2 -4 5 4 6 11 9 15 7 4 -3 8 1 8 9 0 8 -4 12 -9 9 -4
-3 -8 -1 -8 5 0 5 5 13 10 16 7 4 5 14 -4 26 -14 21 -10 58 8 72 6 5 0 5 -12
2 -22 -6 -23 -5 -12 15 8 15 9 25 2 29 -6 3 -9 21 -8 39 1 18 -1 35 -6 38 -5
3 -6 9 -3 14 3 5 0 12 -6 16 -8 5 -9 3 -4 -6 5 -8 4 -11 -2 -7 -5 3 -8 20 -7
36 1 17 -2 31 -7 31 -5 0 -9 14 -9 30 0 17 -5 30 -12 30 -9 0 -8 4 2 10 8 5
10 10 4 10 -7 0 -15 7 -18 16 -6 15 -4 15 10 3 16 -13 16 -12 4 8 -8 12 -19
19 -25 15 -5 -3 -4 2 4 11 9 11 10 17 2 17 -6 0 -11 9 -11 21 0 13 4 18 12 13
7 -5 8 -3 4 5 -5 7 -13 10 -20 8 -7 -3 -13 3 -13 14 -1 12 3 16 15 12 13 -4
14 -3 4 5 -8 5 -13 12 -13 16 1 3 0 8 0 11 -1 3 -2 9 -3 14 0 5 -5 13 -10 18
-6 5 -6 2 -1 -7 8 -13 7 -13 -8 -1 -18 14 -23 26 -8 16 5 -3 12 -1 16 5 3 5 2
10 -4 10 -6 0 -8 6 -5 14 3 7 -1 20 -8 27 -7 8 -14 21 -16 29 -8 34 -225 365
-277 420 -23 25 -62 75 -88 111 -76 108 -188 206 -313 271 -116 60 -209 90
-406 133 -140 30 -523 142 -619 181 -338 136 -626 402 -807 744 -27 52 -55
113 -62 135 -21 69 -55 91 -92 63z m-255 -1565 c-79 -2 -207 -2 -286 0 -78 1
-14 3 143 3 157 0 221 -2 143 -3z m260 -10 c-13 -2 -33 -2 -45 0 -13 2 -3 4
22 4 25 0 35 -2 23 -4z m54 -9 c-3 -3 -12 -4 -19 -1 -8 3 -5 6 6 6 11 1 17 -2
13 -5z m56 -11 c-7 -2 -19 -2 -25 0 -7 3 -2 5 12 5 14 0 19 -2 13 -5z m51 -12
c4 -5 -3 -7 -14 -4 -23 6 -26 13 -6 13 8 0 17 -4 20 -9z m89 -37 c38 -19 120
-84 114 -90 -2 -3 -19 9 -37 26 -19 18 -54 42 -79 55 -25 13 -42 24 -38 25 4
0 22 -7 40 -16z m137 -124 c6 -11 8 -20 6 -20 -3 0 -10 9 -16 20 -6 11 -8 20
-6 20 3 0 10 -9 16 -20z m28 -55 c-3 -3 -9 2 -12 12 -6 14 -5 15 5 6 7 -7 10
-15 7 -18z m71 -372 c-1 -203 -4 -354 -8 -337 -4 17 -11 37 -16 44 -5 9 -4 11
3 6 9 -5 12 76 12 323 0 182 2 331 5 331 3 0 5 -165 4 -367z m148 361 c-3 -3
-12 -4 -19 -1 -8 3 -5 6 6 6 11 1 17 -2 13 -5z m60 0 c-3 -3 -12 -4 -19 -1 -8
3 -5 6 6 6 11 1 17 -2 13 -5z m160 0 c-3 -3 -12 -4 -19 -1 -8 3 -5 6 6 6 11 1
17 -2 13 -5z m40 -1156 c-1 -216 -2 -42 -2 387 0 429 1 606 2 393 2 -212 2
-563 0 -780z m-450 1045 c-3 -10 -5 -2 -5 17 0 19 2 27 5 18 2 -10 2 -26 0
-35z m-634 30 l-113 -4 0 -119 0 -119 123 -4 122 -3 -127 -2 -128 -2 0 130 0
130 118 -2 117 -2 -112 -3z m164 -9 c-3 -3 -12 -4 -19 -1 -8 3 -5 6 6 6 11 1
17 -2 13 -5z m77 -33 c10 -11 16 -26 13 -33 -4 -9 -6 -8 -6 3 -1 9 -11 24 -23
32 -13 9 -18 16 -12 16 6 1 19 -8 28 -18z m23 -83 c-3 -7 -5 -2 -5 12 0 14 2
19 5 13 2 -7 2 -19 0 -25z m363 -85 c-11 -17 -11 -17 -6 0 3 10 7 31 7 45 l2
27 4 -27 c2 -15 -1 -35 -7 -45z m-379 18 c-6 -11 -21 -26 -34 -32 -18 -10 -17
-7 6 14 15 14 27 32 27 38 0 7 3 10 6 7 3 -4 1 -16 -5 -27z m-68 -48 c-7 -2
-19 -2 -25 0 -7 3 -2 5 12 5 14 0 19 -2 13 -5z m428 -30 c-12 -20 -14 -14 -5
12 4 9 9 14 11 11 3 -2 0 -13 -6 -23z m2283 -1 c3 -5 -1 -9 -9 -9 -8 0 -15 4
-15 9 0 4 4 8 9 8 6 0 12 -4 15 -8z m-2305 -44 c-6 -13 -25 -37 -41 -54 -28
-30 -29 -33 -11 -43 10 -6 13 -11 7 -11 -6 0 -17 6 -23 13 -8 11 -5 19 15 38
14 13 32 36 40 52 8 15 17 27 20 27 2 0 0 -10 -7 -22z m21 -169 c22 -28 40
-56 40 -61 0 -6 -12 7 -26 28 -14 21 -35 49 -47 62 -11 12 -18 22 -14 22 4 0
25 -23 47 -51z m-697 -106 c-23 -4 -23 -7 -23 -158 0 -138 2 -154 18 -159 13
-4 13 -4 -3 -3 -19 2 -20 11 -23 152 -1 82 0 155 2 162 3 7 16 12 28 12 l23
-2 -22 -4z m114 1 c-3 -3 -12 -4 -19 -1 -8 3 -5 6 6 6 11 1 17 -2 13 -5z m40
0 c-3 -3 -12 -4 -19 -1 -8 3 -5 6 6 6 11 1 17 -2 13 -5z m106 -11 c-7 -2 -21
-2 -30 0 -10 3 -4 5 12 5 17 0 24 -2 18 -5z m60 -14 c38 -20 67 -52 67 -73 -1
-16 -4 -13 -15 12 -10 22 -28 39 -57 52 -24 11 -37 20 -30 20 7 0 23 -5 35
-11z m74 -146 c-3 -10 -5 -4 -5 12 0 17 2 24 5 18 2 -7 2 -21 0 -30z m-22 -72
c-13 -26 -75 -72 -75 -57 0 3 13 12 29 21 18 9 35 29 43 51 7 19 14 31 16 25
2 -5 -4 -23 -13 -40z m393 -343 l-3 -293 -2 268 c-2 165 -7 266 -13 262 -5 -3
-5 7 1 25 6 16 13 30 15 30 2 0 3 -132 2 -292z m-501 276 c-3 -3 -12 -4 -19
-1 -8 3 -5 6 6 6 11 1 17 -2 13 -5z m2850 -9 c0 -8 -4 -15 -9 -15 -10 0 -11
14 -1 23 9 10 10 9 10 -8z m-3040 -1 c-3 -3 -12 -4 -19 -1 -8 3 -5 6 6 6 11 1
17 -2 13 -5z m86 -1 c-7 -2 -19 -2 -25 0 -7 3 -2 5 12 5 14 0 19 -2 13 -5z
m534 -130 c-33 -45 -77 -92 -77 -82 0 3 16 23 36 44 20 22 42 52 51 68 8 16
17 26 20 23 3 -3 -11 -27 -30 -53z m2423 47 c0 -5 -2 -10 -4 -10 -3 0 -8 5
-11 10 -3 6 -1 10 4 10 6 0 11 -4 11 -10z m-2545 -160 c-7 -11 -79 -50 -92
-50 -4 0 15 13 42 29 60 34 58 34 50 21z m-115 -60 c-8 -5 -22 -9 -30 -9 -10
0 -8 3 5 9 27 12 43 12 25 0z m-53 -16 c-3 -3 -12 -4 -19 -1 -8 3 -5 6 6 6 11
1 17 -2 13 -5z m-54 -11 c-7 -2 -21 -2 -30 0 -10 3 -4 5 12 5 17 0 24 -2 18
-5z m-531 -10 c-40 -2 -103 -2 -140 0 -37 2 -4 3 73 3 77 0 107 -2 67 -3z
m340 0 c-51 -2 -132 -2 -180 0 -48 1 -6 3 93 3 99 0 138 -2 87 -3z m584 -285
c-9 -12 -16 -19 -16 -15 0 11 24 47 28 42 2 -2 -3 -14 -12 -27z m-333 -331 c9
-6 8 -7 -3 -4 -13 3 -15 32 -15 183 l-1 179 3 -175 c3 -123 7 -177 16 -183z
m754 311 c-3 -7 -5 -2 -5 12 0 14 2 19 5 13 2 -7 2 -19 0 -25z m-664 15 c-7
-2 -19 -2 -25 0 -7 3 -2 5 12 5 14 0 19 -2 13 -5z m84 -19 c-3 -3 -12 -4 -19
-1 -8 3 -5 6 6 6 11 1 17 -2 13 -5z m563 -51 c-11 -17 -11 -17 -6 0 3 10 6 24
7 30 0 9 2 9 5 0 3 -7 0 -20 -6 -30z m-29 -76 c-10 -9 -11 -8 -5 6 3 10 9 15
12 12 3 -3 0 -11 -7 -18z m-20 -35 c-5 -10 -18 -25 -28 -33 -12 -10 -11 -5 6
19 24 35 38 43 22 14z m-41 -56 c0 -2 -17 -16 -37 -31 l-38 -27 33 31 c30 29
42 37 42 27z m-80 -61 c0 -2 -13 -11 -30 -20 -38 -19 -40 -11 -2 9 31 17 32
18 32 11z m-520 -45 c8 -5 11 -10 5 -10 -5 0 -17 5 -25 10 -8 5 -10 10 -5 10
6 0 17 -5 25 -10z m440 0 c-8 -5 -22 -9 -30 -9 -10 0 -8 3 5 9 27 12 43 12 25
0z m-93 -26 c-3 -3 -12 -4 -19 -1 -8 3 -5 6 6 6 11 1 17 -2 13 -5z m-189 -11
c-10 -2 -28 -2 -40 0 -13 2 -5 4 17 4 22 1 32 -1 23 -4z m135 0 c-13 -2 -33
-2 -45 0 -13 2 -3 4 22 4 25 0 35 -2 23 -4z"/>
</g>
</svg>
